<svg width="256" height="256" viewBox="0 0 256 256" xmlns="http://www.w3.org/2000/svg">
  <defs>
    <!-- 渐变背景 -->
    <linearGradient id="bgGradient" x1="0%" y1="0%" x2="100%" y2="100%">
      <stop offset="0%" style="stop-color:#ff4757;stop-opacity:1" />
      <stop offset="50%" style="stop-color:#ff3838;stop-opacity:1" />
      <stop offset="100%" style="stop-color:#c44569;stop-opacity:1" />
    </linearGradient>

    <!-- 音符渐变 -->
    <linearGradient id="noteGradient" x1="0%" y1="0%" x2="100%" y2="100%">
      <stop offset="0%" style="stop-color:#ffffff;stop-opacity:0.95" />
      <stop offset="100%" style="stop-color:#f1f2f6;stop-opacity:0.9" />
    </linearGradient>

    <!-- 歌词线条渐变 -->
    <linearGradient id="lyricGradient" x1="0%" y1="0%" x2="100%" y2="0%">
      <stop offset="0%" style="stop-color:#ffffff;stop-opacity:0.8" />
      <stop offset="50%" style="stop-color:#ffffff;stop-opacity:0.95" />
      <stop offset="100%" style="stop-color:#ffffff;stop-opacity:0.7" />
    </linearGradient>

    <!-- 阴影滤镜 -->
    <filter id="shadow" x="-50%" y="-50%" width="200%" height="200%">
      <feDropShadow dx="0" dy="4" stdDeviation="8" flood-color="#000000" flood-opacity="0.3"/>
    </filter>

    <!-- 内发光效果 -->
    <filter id="glow" x="-50%" y="-50%" width="200%" height="200%">
      <feGaussianBlur stdDeviation="2" result="coloredBlur"/>
      <feMerge>
        <feMergeNode in="coloredBlur"/>
        <feMergeNode in="SourceGraphic"/>
      </feMerge>
    </filter>
  </defs>

  <!-- 圆角矩形背景 -->
  <rect x="16" y="16" width="224" height="224" rx="48" ry="48"
        fill="url(#bgGradient)" filter="url(#shadow)"/>

  <!-- 装饰性背景圆环 -->
  <circle cx="128" cy="128" r="85" fill="none" stroke="rgba(255,255,255,0.1)" stroke-width="2"/>
  <circle cx="128" cy="128" r="70" fill="none" stroke="rgba(255,255,255,0.05)" stroke-width="1"/>

  <!-- 主要音符图标 -->
  <g transform="translate(80, 60)" filter="url(#glow)">
    <!-- 音符符头 -->
    <ellipse cx="12" cy="85" rx="11" ry="8" fill="url(#noteGradient)" transform="rotate(-20 12 85)"/>
    <ellipse cx="45" cy="65" rx="11" ry="8" fill="url(#noteGradient)" transform="rotate(-20 45 65)"/>

    <!-- 音符符干 -->
    <rect x="21" y="25" width="3" height="65" fill="url(#noteGradient)" rx="1.5"/>
    <rect x="54" y="5" width="3" height="65" fill="url(#noteGradient)" rx="1.5"/>

    <!-- 连接横梁 -->
    <path d="M24 25 L57 5 L57 15 L24 35 Z" fill="url(#noteGradient)"/>
    <path d="M24 35 L57 15 L57 25 L24 45 Z" fill="rgba(255,255,255,0.8)"/>
  </g>

  <!-- 歌词线条组 -->
  <g opacity="0.9">
    <!-- 第一行歌词线 -->
    <rect x="65" y="140" width="85" height="3" rx="1.5" fill="url(#lyricGradient)"/>
    <rect x="160" y="140" width="25" height="3" rx="1.5" fill="rgba(255,255,255,0.6)"/>

    <!-- 第二行歌词线 -->
    <rect x="65" y="155" width="95" height="3" rx="1.5" fill="url(#lyricGradient)"/>
    <rect x="170" y="155" width="15" height="3" rx="1.5" fill="rgba(255,255,255,0.5)"/>

    <!-- 第三行歌词线 -->
    <rect x="65" y="170" width="75" height="3" rx="1.5" fill="url(#lyricGradient)"/>
    <rect x="150" y="170" width="35" height="3" rx="1.5" fill="rgba(255,255,255,0.6)"/>

    <!-- 第四行歌词线 -->
    <rect x="65" y="185" width="105" height="3" rx="1.5" fill="url(#lyricGradient)"/>
  </g>

  <!-- 时间标签装饰 -->
  <g opacity="0.7">
    <rect x="40" y="138" width="18" height="7" rx="3" fill="rgba(255,255,255,0.8)"/>
    <rect x="40" y="153" width="18" height="7" rx="3" fill="rgba(255,255,255,0.7)"/>
    <rect x="40" y="168" width="18" height="7" rx="3" fill="rgba(255,255,255,0.8)"/>
    <rect x="40" y="183" width="18" height="7" rx="3" fill="rgba(255,255,255,0.6)"/>
  </g>

  <!-- 微妙的高光效果 -->
  <ellipse cx="90" cy="50" rx="25" ry="15" fill="rgba(255,255,255,0.15)" transform="rotate(-20 90 50)"/>

  <!-- 下载箭头暗示 -->
  <g transform="translate(180, 85)" opacity="0.4">
    <path d="M0 0 L8 0 L4 6 Z" fill="rgba(255,255,255,0.8)"/>
    <rect x="3" y="-8" width="2" height="8" fill="rgba(255,255,255,0.8)"/>
  </g>
</svg>
